<svg preserveAspectRatio="none" width="100%" height="100%" overflow="visible" style="display: block;" viewBox="0 0 1507 566.233" fill="none" xmlns="http://www.w3.org/2000/svg">
<path id="Rectangle 4457" d="M0 22.1618C0 9.92216 9.92216 0 22.1618 0H753.5H1108.09C1120.33 0 1130.25 9.92216 1130.25 22.1618V73.3382C1130.25 85.5778 1140.17 95.5 1152.41 95.5H1484.84C1497.08 95.5 1507 105.422 1507 117.662V544.071C1507 556.311 1497.08 566.233 1484.84 566.233H747.959C735.72 566.233 725.798 556.311 725.798 544.071V483.126C725.798 470.887 715.876 460.965 703.636 460.965H22.1618C9.92219 460.965 0 451.043 0 438.803V22.1618Z" fill="var(--fill-0, black)"/>
</svg>
