<svg preserveAspectRatio="none" width="100%" height="100%" overflow="visible" style="display: block;" viewBox="0 0 391 119.472" fill="none" xmlns="http://www.w3.org/2000/svg">
<g id="svg-393525973_3974">
<path id="Vector" d="M90.8328 1.90915H78.7648C72.8013 1.90915 67.9668 6.75285 67.9668 12.7279V28.6376C67.9668 34.6129 72.8013 39.4565 78.7648 39.4565H80.0351C85.9986 39.4565 90.8328 34.6129 90.8328 28.6376V1.90915Z" fill="var(--fill-0, white)"/>
<path id="Vector_2" d="M0 1.90915H12.0681C18.0316 1.90915 22.8659 6.75285 22.8659 12.7279V26.7286C22.8659 32.7035 18.0316 37.5472 12.0681 37.5472H10.7978C4.83434 37.5472 0 32.7035 0 26.7285V1.90915Z" fill="var(--fill-0, white)"/>
<path id="Vector_3" d="M139.283 69.3124H123.987C119.706 69.3124 116.236 65.8357 116.236 61.5472V0.0371094H131.533C135.814 0.0371094 139.283 3.51375 139.283 7.80241V69.3124ZM162.331 69.3124V7.80241C162.331 3.51375 165.8 0.0371094 170.081 0.0371094H177.627C181.908 0.0371094 185.378 3.51375 185.378 7.80241V69.3124H162.331ZM208.425 69.3124V7.80241C208.425 3.51375 211.895 0.0371094 216.175 0.0371094H231.472V61.5472C231.472 65.8357 228.002 69.3124 223.722 69.3124H208.425ZM162.331 107.731C162.331 112.02 158.861 115.496 154.58 115.496H139.283V69.3124H162.331V107.731ZM208.425 107.731C208.425 112.02 204.955 115.496 200.675 115.496H185.378V69.3124H208.425V107.731Z" fill="var(--fill-0, white)"/>
<path id="Vector_4" d="M315.906 92.4044C320.188 92.4044 323.657 95.8811 323.657 100.17V107.731C323.657 112.02 320.188 115.496 315.906 115.496H262.266C257.986 115.496 254.516 112.02 254.516 107.731V0.0371094H269.813C274.093 0.0371094 277.563 3.51375 277.563 7.80241V84.639C277.563 88.9278 281.032 92.4044 285.314 92.4044H315.906Z" fill="var(--fill-0, white)"/>
<path id="Vector_5" d="M344.902 46.1835H329.606C325.325 46.1835 321.855 42.7069 321.855 38.4184V0H337.152C341.433 0 344.902 3.47664 344.902 7.76531V46.1835ZM367.949 46.1835V0H383.245C387.527 0 390.996 3.47664 390.996 7.76531V38.4184C390.996 42.7069 387.527 46.1835 383.245 46.1835H367.949ZM367.949 107.694C367.949 111.982 364.48 115.459 360.198 115.459H344.902V46.1835H367.949V107.694Z" fill="var(--fill-0, white)"/>
<path id="Vector_6" d="M22.8262 21.7663C22.8262 17.4776 26.2961 14.001 30.5764 14.001H60.7322C65.0127 14.001 68.4826 17.4776 68.4826 21.7663V36.8735H22.8262V21.7663Z" fill="var(--fill-0, white)"/>
<path id="Vector_7" d="M22.8262 97.0498H68.4826V109.013C68.4826 113.301 65.0127 116.778 60.7322 116.778H30.8293C26.4093 116.778 22.8262 113.188 22.8262 108.759L22.8262 97.0498Z" fill="var(--fill-0, white)"/>
<path id="Vector_8" d="M83.5644 36.8737C87.8446 36.8737 91.3145 40.3503 91.3145 44.6388V89.2853C91.3145 93.5741 87.8446 97.0507 83.5644 97.0507H68.4865V36.8737H83.5644Z" fill="var(--fill-0, white)"/>
<path id="Vector_9" d="M22.8282 36.8737L22.8282 97.0507H7.75028C3.46991 97.0507 0 93.5741 0 89.2853V44.6388C0 40.3503 3.46991 36.8737 7.75028 36.8737H22.8282Z" fill="var(--fill-0, white)"/>
<g id="Mask group">
<mask id="mask0_13_1565" style="mask-type:luminance" maskUnits="userSpaceOnUse" x="10" y="21" width="35" height="37">
<g id="Group">
<path id="Vector_10" d="M44.2336 30.0522C44.2336 25.4486 40.5091 21.7168 35.9145 21.7168H22.0492C15.9232 21.7168 10.957 26.6926 10.957 32.8306V57.8364H33.1414C39.2673 57.8364 44.2336 52.8606 44.2336 46.7227V30.0522Z" fill="var(--fill-0, white)"/>
</g>
</mask>
<g mask="url(#mask0_13_1565)">
<path id="Vector_11" d="M44.2336 30.0522C44.2336 25.4486 40.5091 21.7168 35.9145 21.7168H22.0492C15.9232 21.7168 10.957 26.6926 10.957 32.8306V57.8364H33.1414C39.2673 57.8364 44.2336 52.8606 44.2336 46.7227V30.0522Z" fill="var(--fill-0, white)" stroke="var(--stroke-1, black)" stroke-width="22.8881"/>
</g>
</g>
<g id="Mask group_2">
<mask id="mask1_13_1565" style="mask-type:luminance" maskUnits="userSpaceOnUse" x="49" y="21" width="35" height="37">
<g id="Group_2">
<path id="Vector_12" d="M49.7773 30.0522C49.7773 25.4486 53.5021 21.7168 58.0965 21.7168H71.9617C78.0877 21.7168 83.0539 26.6926 83.0539 32.8306V57.8364H60.8695C54.7436 57.8364 49.7773 52.8606 49.7773 46.7227V30.0522Z" fill="var(--fill-0, white)"/>
</g>
</mask>
<g mask="url(#mask1_13_1565)">
<path id="Vector_13" d="M49.7773 30.0522C49.7773 25.4486 53.5021 21.7168 58.0965 21.7168H71.9617C78.0877 21.7168 83.0539 26.6926 83.0539 32.8306V57.8364H60.8695C54.7436 57.8364 49.7773 52.8606 49.7773 46.7227V30.0522Z" fill="var(--fill-0, white)" stroke="var(--stroke-1, black)" stroke-width="22.8881"/>
</g>
</g>
<path id="Vector_14" d="M49.986 58.5481C48.5191 61.0937 44.852 61.0937 43.385 58.5481L38.7097 50.4343C37.2427 47.8887 39.0763 44.7065 42.0099 44.7065H51.3612C54.2948 44.7065 56.1283 47.8887 54.6616 50.4343L49.986 58.5481Z" fill="var(--fill-0, white)"/>
</g>
</svg>
