<svg preserveAspectRatio="none" width="100%" height="100%" overflow="visible" style="display: block;" viewBox="0 0 99.015 30.2546" fill="none" xmlns="http://www.w3.org/2000/svg">
<g id="svg-393525973_3974" clip-path="url(#clip0_13_1746)">
<path id="Vector" d="M23.0021 0.483471H19.946C18.4359 0.483471 17.2116 1.71006 17.2116 3.22315V7.25206C17.2116 8.76521 18.4359 9.99178 19.946 9.99178H20.2677C21.7779 9.99178 23.0021 8.76521 23.0021 7.25206V0.483471Z" fill="var(--fill-0, #232520)"/>
<path id="Vector_2" d="M7.86177e-07 0.483471H3.05607C4.56623 0.483471 5.79045 1.71006 5.79045 3.22315V6.76862C5.79045 8.2817 4.56623 9.50827 3.05607 9.50827H2.73438C1.22423 9.50827 7.86177e-07 8.2817 7.86177e-07 6.76862V0.483471Z" fill="var(--fill-0, #232520)"/>
<path id="Vector_3" d="M35.2714 17.5529H31.3978C30.3138 17.5529 29.4351 16.6725 29.4351 15.5865V0.010002H33.3088C34.3927 0.010002 35.2714 0.89041 35.2714 1.97645V17.5529ZM41.1078 17.5529V1.97645C41.1078 0.89041 41.9865 0.010002 43.0704 0.010002H44.9815C46.0654 0.010002 46.9442 0.89041 46.9442 1.97645V17.5529H41.1078ZM52.7805 17.5529V1.97645C52.7805 0.89041 53.6592 0.010002 54.7431 0.010002H58.6168V15.5865C58.6168 16.6725 57.7381 17.5529 56.6542 17.5529H52.7805ZM41.1078 27.2818C41.1078 28.3679 40.229 29.2483 39.1451 29.2483H35.2714V17.5529H41.1078V27.2818ZM52.7805 27.2818C52.7805 28.3679 51.9018 29.2483 50.8178 29.2483H46.9442V17.5529H52.7805V27.2818Z" fill="var(--fill-0, #232520)"/>
<path id="Vector_4" d="M79.998 23.4007C81.0823 23.4007 81.9608 24.2811 81.9608 25.3671V27.2818C81.9608 28.3679 81.0823 29.2483 79.998 29.2483H66.4144C65.3305 29.2483 64.4518 28.3679 64.4518 27.2818V0.010002H68.3255C69.4094 0.010002 70.2882 0.89041 70.2882 1.97645V21.4342C70.2882 22.5202 71.1667 23.4007 72.251 23.4007H79.998Z" fill="var(--fill-0, #232520)"/>
<path id="Vector_5" d="M87.3412 11.6953H83.4677C82.3835 11.6953 81.505 10.8149 81.505 9.72888V-9.01841e-07H85.3785C86.4627 -9.01841e-07 87.3412 0.880407 87.3412 1.96645V11.6953ZM93.1775 11.6953V-9.01841e-07H97.051C98.1353 -9.01841e-07 99.0138 0.880407 99.0138 1.96645V9.72888C99.0138 10.8149 98.1353 11.6953 97.051 11.6953H93.1775ZM93.1775 27.2718C93.1775 28.3579 92.299 29.2383 91.2148 29.2383H87.3412V11.6953H93.1775V27.2718Z" fill="var(--fill-0, #232520)"/>
<path id="Vector_6" d="M5.78017 5.51228C5.78017 4.42623 6.65888 3.54583 7.74281 3.54583H15.3793C16.4633 3.54583 17.342 4.42624 17.342 5.51228V9.33795H5.78017V5.51228Z" fill="var(--fill-0, #232520)"/>
<path id="Vector_7" d="M5.78018 24.5768H17.342V27.6063C17.342 28.6923 16.4633 29.5727 15.3793 29.5727H7.80685C6.68754 29.5727 5.78017 28.6636 5.78017 27.5421L5.78018 24.5768Z" fill="var(--fill-0, #232520)"/>
<path id="Vector_8" d="M21.1615 9.33767C22.2454 9.33767 23.1241 10.2181 23.1241 11.3041V22.6101C23.1241 23.6962 22.2454 24.5766 21.1615 24.5766H17.3433V9.33767H21.1615Z" fill="var(--fill-0, #232520)"/>
<path id="Vector_9" d="M5.78089 9.33767L5.7809 24.5766H1.96265C0.878705 24.5766 7.86177e-07 23.6962 7.86177e-07 22.6101V11.3041C7.86177e-07 10.2181 0.878705 9.33767 1.96265 9.33767H5.78089Z" fill="var(--fill-0, #232520)"/>
<g id="Mask group">
<mask id="mask0_13_1746" style="mask-type:luminance" maskUnits="userSpaceOnUse" x="2" y="5" width="10" height="10">
<g id="Group">
<path id="Vector_10" d="M11.2009 7.61072C11.2009 6.44494 10.2578 5.4999 9.09422 5.4999H5.58306C4.03173 5.4999 2.77413 6.75994 2.77413 8.31432V14.6467H8.39199C9.9433 14.6467 11.2009 13.3866 11.2009 11.8323V7.61072Z" fill="var(--fill-0, white)"/>
</g>
</mask>
<g mask="url(#mask0_13_1746)">
<path id="Vector_11" d="M11.2009 7.61072C11.2009 6.44494 10.2578 5.4999 9.09422 5.4999H5.58306C4.03173 5.4999 2.77413 6.75994 2.77413 8.31432V14.6467H8.39199C9.9433 14.6467 11.2009 13.3866 11.2009 11.8323V7.61072Z" fill="var(--fill-0, #232520)" stroke="var(--stroke-1, #FBFBEF)" stroke-width="5.79606"/>
</g>
</g>
<g id="Mask group_2">
<mask id="mask1_13_1746" style="mask-type:luminance" maskUnits="userSpaceOnUse" x="12" y="5" width="10" height="10">
<g id="Group_2">
<path id="Vector_12" d="M12.605 7.61057C12.605 6.44478 13.5482 5.49975 14.7117 5.49975H18.2228C19.7741 5.49975 21.0318 6.75979 21.0318 8.31416V14.6465H15.4139C13.8626 14.6465 12.605 13.3864 12.605 11.8321V7.61057Z" fill="var(--fill-0, white)"/>
</g>
</mask>
<g mask="url(#mask1_13_1746)">
<path id="Vector_13" d="M12.6051 7.61062C12.6051 6.44484 13.5483 5.4998 14.7118 5.4998H18.2229C19.7742 5.4998 21.0319 6.75984 21.0319 8.31422V14.6466H15.414C13.8627 14.6466 12.6051 13.3865 12.6051 11.8322V7.61062Z" fill="var(--fill-0, #232520)" stroke="var(--stroke-1, #FBFBEF)" stroke-width="5.79606"/>
</g>
</g>
<path id="Vector_14" d="M12.6591 14.8267C12.2876 15.4714 11.359 15.4714 10.9875 14.8267L9.80352 12.772C9.43203 12.1274 9.89635 11.3216 10.6392 11.3216H13.0073C13.7502 11.3216 14.2145 12.1274 13.8431 12.772L12.6591 14.8267Z" fill="var(--fill-0, #232520)"/>
</g>
<defs>
<clipPath id="clip0_13_1746">
<rect width="99.015" height="30.2546" fill="white"/>
</clipPath>
</defs>
</svg>
